<svg width="227" height="46" viewBox="0 0 227 46" fill="none" xmlns="http://www.w3.org/2000/svg">
<path d="M10.125 40H0.820312V6.25H19.0547C20.6328 6.25 22.1406 6.46094 23.5781 6.88281C25.0312 7.30469 26.3125 7.94531 27.4219 8.80469C28.5312 9.64844 29.4141 10.7188 30.0703 12.0156C30.7422 13.2969 31.0781 14.8047 31.0781 16.5391C31.0781 17.6328 30.9219 18.6641 30.6094 19.6328C30.2969 20.5859 29.8594 21.4609 29.2969 22.2578C28.75 23.0547 28.1016 23.7734 27.3516 24.4141C26.6016 25.0547 25.7812 25.5938 24.8906 26.0312C24 26.4688 23.0547 26.8047 22.0547 27.0391C21.0703 27.2734 20.0703 27.3906 19.0547 27.3906H10.125V40ZM21.6562 16.5391C21.6562 14.3672 21.1016 12.6641 19.9922 11.4297C18.8984 10.1797 17.2422 9.55469 15.0234 9.55469H10.125V24.2031H15.0234C16.2109 24.2031 17.2188 24.0156 18.0469 23.6406C18.8906 23.25 19.5781 22.7109 20.1094 22.0234C20.6406 21.3359 21.0312 20.5312 21.2812 19.6094C21.5312 18.6719 21.6562 17.6484 21.6562 16.5391ZM43.1016 40H35.1797V0.460938H38.2266L43.1016 8.6875V40ZM76.9688 40H69.0469V36.7656C68.1094 38.0469 66.9766 39 65.6484 39.625C64.3359 40.2344 62.8906 40.5391 61.3125 40.5391C59.25 40.5391 57.4062 40.1719 55.7812 39.4375C54.1562 38.7031 52.7812 37.7031 51.6562 36.4375C50.5312 35.1562 49.6719 33.6562 49.0781 31.9375C48.4844 30.2188 48.1875 28.375 48.1875 26.4062C48.1875 24.4375 48.4844 22.5938 49.0781 20.875C49.6719 19.1562 50.5312 17.6641 51.6562 16.3984C52.7812 15.1172 54.1562 14.1094 55.7812 13.375C57.4062 12.6406 59.25 12.2734 61.3125 12.2734C62.3594 12.2734 63.3516 12.4297 64.2891 12.7422C65.2422 13.0547 66.1094 13.5 66.8906 14.0781C67.6875 14.6406 68.3828 15.3281 68.9766 16.1406C69.5859 16.9375 70.0625 17.8281 70.4062 18.8125L73.9219 12.9297H76.9688V40ZM69 26.4062C69 25.7031 68.9609 24.9609 68.8828 24.1797C68.8203 23.3984 68.7031 22.625 68.5312 21.8594C68.3594 21.0938 68.1172 20.3672 67.8047 19.6797C67.5078 18.9766 67.1172 18.3594 66.6328 17.8281C66.1641 17.2812 65.5938 16.8516 64.9219 16.5391C64.25 16.2266 63.4688 16.0703 62.5781 16.0703C61.6875 16.0703 60.9141 16.2344 60.2578 16.5625C59.6016 16.875 59.0391 17.3047 58.5703 17.8516C58.1016 18.3828 57.7109 19 57.3984 19.7031C57.1016 20.4062 56.8672 21.1406 56.6953 21.9062C56.5234 22.6719 56.3984 23.4453 56.3203 24.2266C56.2578 24.9922 56.2266 25.7188 56.2266 26.4062C56.2266 27.0938 56.2578 27.8281 56.3203 28.6094C56.3984 29.3906 56.5234 30.1641 56.6953 30.9297C56.8672 31.6953 57.1016 32.4297 57.3984 33.1328C57.7109 33.8359 58.1016 34.4609 58.5703 35.0078C59.0391 35.5391 59.6016 35.9688 60.2578 36.2969C60.9141 36.6094 61.6875 36.7656 62.5781 36.7656C63.3906 36.7656 64.1094 36.6016 64.7344 36.2734C65.375 35.9297 65.9297 35.4766 66.3984 34.9141C66.8828 34.3516 67.2891 33.7109 67.6172 32.9922C67.9453 32.2734 68.2109 31.5312 68.4141 30.7656C68.6172 30 68.7656 29.2422 68.8594 28.4922C68.9531 27.7266 69 27.0312 69 26.4062ZM111.281 24.4844C111.281 26.3125 111.055 28.2188 110.602 30.2031C110.164 32.1875 109.547 34.1328 108.75 36.0391C107.953 37.9453 107 39.7344 105.891 41.4062C104.781 43.0938 103.562 44.5469 102.234 45.7656L99.2578 44.1484C99.6797 43.3672 100.078 42.4922 100.453 41.5234C100.828 40.5547 101.164 39.5312 101.461 38.4531C101.773 37.3594 102.047 36.2344 102.281 35.0781C102.531 33.9219 102.734 32.7812 102.891 31.6562C103.062 30.5156 103.188 29.4141 103.266 28.3516C103.359 27.2734 103.406 26.2734 103.406 25.3516C103.406 24.7422 103.383 24.0938 103.336 23.4062C103.289 22.7031 103.188 22.0078 103.031 21.3203C102.891 20.6172 102.695 19.9453 102.445 19.3047C102.195 18.6641 101.859 18.1016 101.438 17.6172C101.031 17.1328 100.531 16.7422 99.9375 16.4453C99.3594 16.1484 98.6719 16 97.875 16C97.0938 16 96.3984 16.1797 95.7891 16.5391C95.1797 16.8828 94.6406 17.3438 94.1719 17.9219C93.7031 18.4844 93.2969 19.1328 92.9531 19.8672C92.625 20.6016 92.3516 21.3594 92.1328 22.1406C91.9297 22.9062 91.7812 23.6641 91.6875 24.4141C91.5938 25.1641 91.5469 25.8359 91.5469 26.4297V40H83.6016V12.9297H86.6484L90.2812 19.2344C90.7188 18.1875 91.2656 17.2344 91.9219 16.375C92.5781 15.5156 93.3203 14.7812 94.1484 14.1719C94.9766 13.5625 95.8906 13.0938 96.8906 12.7656C97.9062 12.4375 99 12.2734 100.172 12.2734C102.047 12.2734 103.68 12.5781 105.07 13.1875C106.461 13.7969 107.617 14.6484 108.539 15.7422C109.461 16.8203 110.148 18.1094 110.602 19.6094C111.055 21.0938 111.281 22.7188 111.281 24.4844ZM123.023 27.1562C123.992 27.375 124.961 27.5469 125.93 27.6719C126.898 27.7969 127.875 27.8594 128.859 27.8594C129.891 27.8594 130.844 27.7656 131.719 27.5781C132.609 27.375 133.375 27.0469 134.016 26.5938C134.672 26.125 135.188 25.5078 135.562 24.7422C135.938 23.9766 136.125 23.0234 136.125 21.8828C136.125 20.9609 136 20.1172 135.75 19.3516C135.5 18.5859 135.125 17.9297 134.625 17.3828C134.141 16.8359 133.539 16.4141 132.82 16.1172C132.102 15.8047 131.266 15.6484 130.312 15.6484C129.422 15.6484 128.617 15.8125 127.898 16.1406C127.195 16.4688 126.57 16.9141 126.023 17.4766C125.492 18.0234 125.031 18.6641 124.641 19.3984C124.266 20.1328 123.953 20.8984 123.703 21.6953C123.453 22.4922 123.273 23.2969 123.164 24.1094C123.055 24.9219 123 25.6875 123 26.4062C123 26.5312 123 26.6562 123 26.7812C123 26.9062 123.008 27.0312 123.023 27.1562ZM142.547 21.8125C142.547 22.9219 142.367 23.9141 142.008 24.7891C141.648 25.6484 141.156 26.4062 140.531 27.0625C139.922 27.7188 139.211 28.2734 138.398 28.7266C137.586 29.1797 136.719 29.5547 135.797 29.8516C134.875 30.1328 133.922 30.3359 132.938 30.4609C131.969 30.5859 131.023 30.6484 130.102 30.6484C128.93 30.6484 127.773 30.5703 126.633 30.4141C125.492 30.2422 124.367 29.9766 123.258 29.6172C123.43 30.6484 123.703 31.6328 124.078 32.5703C124.453 33.4922 124.953 34.3047 125.578 35.0078C126.203 35.6953 126.969 36.2422 127.875 36.6484C128.797 37.0547 129.883 37.2578 131.133 37.2578C131.961 37.2578 132.75 37.1328 133.5 36.8828C134.25 36.6328 134.938 36.2812 135.562 35.8281C136.188 35.375 136.734 34.8359 137.203 34.2109C137.688 33.5859 138.078 32.8906 138.375 32.125L141.797 33.3906C141.281 34.625 140.57 35.6953 139.664 36.6016C138.773 37.4922 137.758 38.2344 136.617 38.8281C135.492 39.4062 134.289 39.8359 133.008 40.1172C131.742 40.3984 130.484 40.5391 129.234 40.5391C127.172 40.5391 125.266 40.1953 123.516 39.5078C121.766 38.8047 120.258 37.8281 118.992 36.5781C117.727 35.3281 116.734 33.8359 116.016 32.1016C115.297 30.3672 114.938 28.4688 114.938 26.4062C114.938 24.3438 115.297 22.4453 116.016 20.7109C116.734 18.9766 117.727 17.4844 118.992 16.2344C120.258 14.9844 121.766 14.0156 123.516 13.3281C125.266 12.625 127.172 12.2734 129.234 12.2734C130.234 12.2734 131.258 12.3438 132.305 12.4844C133.352 12.625 134.367 12.8516 135.352 13.1641C136.336 13.4609 137.266 13.8516 138.141 14.3359C139.016 14.8203 139.773 15.4219 140.414 16.1406C141.07 16.8438 141.586 17.6641 141.961 18.6016C142.352 19.5391 142.547 20.6094 142.547 21.8125ZM157.688 40H149.742V16.0703H144.82V12.9297H149.742V2.96875H157.688V12.9297H165.891V16.0703H157.688V40ZM194.32 40H170.086V6.25H179.391V35.7109H194.32V40ZM226.383 29.6875C226.383 31.1406 226.195 32.4219 225.82 33.5312C225.461 34.6406 224.945 35.6016 224.273 36.4141C223.617 37.2266 222.836 37.9062 221.93 38.4531C221.023 39 220.031 39.4375 218.953 39.7656C217.891 40.0938 216.758 40.3281 215.555 40.4688C214.367 40.6094 213.156 40.6797 211.922 40.6797C210.297 40.6797 208.797 40.5547 207.422 40.3047C206.047 40.0703 204.75 39.6953 203.531 39.1797C202.328 38.6484 201.164 37.9688 200.039 37.1406C198.93 36.3125 197.82 35.3047 196.711 34.1172L201.492 29.2656C201.93 30.3438 202.531 31.3438 203.297 32.2656C204.062 33.1719 204.898 33.9531 205.805 34.6094C206.727 35.2656 207.68 35.7812 208.664 36.1562C209.648 36.5312 210.578 36.7188 211.453 36.7188C212.484 36.7188 213.453 36.6484 214.359 36.5078C215.266 36.3516 216.055 36.1016 216.727 35.7578C217.398 35.4141 217.922 34.9609 218.297 34.3984C218.688 33.8203 218.883 33.1016 218.883 32.2422C218.883 31.5859 218.734 31.0234 218.438 30.5547C218.141 30.0859 217.75 29.6875 217.266 29.3594C216.797 29.0156 216.258 28.7266 215.648 28.4922C215.039 28.2578 214.414 28.0625 213.773 27.9062C213.148 27.7344 212.531 27.5859 211.922 27.4609C211.312 27.3203 210.773 27.1797 210.305 27.0391C209.383 26.7734 208.422 26.4922 207.422 26.1953C206.422 25.8828 205.438 25.5312 204.469 25.1406C203.5 24.75 202.578 24.3047 201.703 23.8047C200.844 23.2891 200.086 22.6875 199.43 22C198.773 21.2969 198.25 20.4922 197.859 19.5859C197.469 18.6641 197.273 17.6094 197.273 16.4219C197.273 15 197.445 13.7422 197.789 12.6484C198.148 11.5391 198.648 10.5781 199.289 9.76562C199.93 8.95312 200.688 8.27344 201.562 7.72656C202.438 7.16406 203.398 6.71875 204.445 6.39062C205.492 6.04688 206.602 5.80469 207.773 5.66406C208.961 5.50781 210.172 5.42969 211.406 5.42969C213.094 5.42969 214.625 5.58594 216 5.89844C217.391 6.21094 218.672 6.65625 219.844 7.23438C221.016 7.8125 222.086 8.50781 223.055 9.32031C224.039 10.1172 224.961 11.0078 225.82 11.9922L221.039 16.8438C220.664 15.7188 220.141 14.7031 219.469 13.7969C218.812 12.8906 218.078 12.1172 217.266 11.4766C216.453 10.8203 215.602 10.3203 214.711 9.97656C213.82 9.61719 212.961 9.4375 212.133 9.4375C211.055 9.4375 210.062 9.51562 209.156 9.67188C208.25 9.8125 207.469 10.0547 206.812 10.3984C206.172 10.7266 205.672 11.1797 205.312 11.7578C204.953 12.3203 204.773 13.0234 204.773 13.8672C204.773 14.5391 204.906 15.1094 205.172 15.5781C205.438 16.0469 205.789 16.4453 206.227 16.7734C206.68 17.1016 207.188 17.375 207.75 17.5938C208.312 17.7969 208.891 17.9766 209.484 18.1328C210.094 18.2891 210.688 18.4297 211.266 18.5547C211.859 18.6641 212.398 18.7891 212.883 18.9297C213.82 19.1953 214.805 19.4766 215.836 19.7734C216.867 20.0703 217.883 20.4219 218.883 20.8281C219.883 21.2188 220.836 21.6719 221.742 22.1875C222.648 22.7031 223.445 23.3203 224.133 24.0391C224.82 24.7422 225.367 25.5625 225.773 26.5C226.18 27.4219 226.383 28.4844 226.383 29.6875Z" fill="#D28D4A"/>
</svg>
